# xmcd
#
# Track frame offsets:
#	157
#	20588
#	60147
#	81885
#	105195
#	129195
#	158914
#	184720
#	206598
#	247823
#
# Disc length: 3686 seconds
#
# Revision: 0
# Processed by: cddbd v1.5.1PL2 Copyright (c) Steve Scherf et al.
# Submitted via: dBpowerAMP V4.0
#
DISCID=6c0e640a
DTITLE=Jeff Lang - Disturbed Folk Vol. 2
DYEAR=1999
DGENRE=Blues
TTITLE0=We Don't Ask
TTITLE1=Scream
TTITLE2=London
TTITLE3=Goin' Out West
TTITLE4=Cedar Grove
TTITLE5=Is She Slipping
TTITLE6=Prepare Me Well
TTITLE7=We Belong Together
TTITLE8=Elvis is Dead
TTITLE9=1952 Vincent Black Lightning
EXTD=
EXTT0=
EXTT1=
EXTT2=
EXTT3=
EXTT4=
EXTT5=
EXTT6=
EXTT7=
EXTT8=
EXTT9=
PLAYORDER=
